<svg xmlns="http://www.w3.org/2000/svg" width="45" height="45" viewBox="0 0 490.8 490.8" aria-label="Logo JS - Accueil - Portfolio Julie Salha" class="logo"><g fill="#fe0100"><svg xmlns="http://www.w3.org/2000/svg" viewBox="0 0 530 543" xml:space="preserve" class="logo-js"><path d="M191 393.7v43.9c0 31.8-2.1 67.2-38.5 86.2-7.7 4.1-17.4 5.6-28.2 5.6-17.4 0-40-6.2-49.2-13.8-11.3-7.7-17.4-15.9-25.1-34.9 7.2 4.6 20.5 8.2 34.9 8.2 51.3 0 64.1-42.1 64.1-63.1 0-46.7-39.5-66.7-67.2-66.7-39.5 0-71.3 34.4-71.3 75.9 0 59.5 52.3 99 129.2 99 49.7 0 95.4-13.3 123.6-32.3 37.1-24 43.9-48 44.9-72.3h-.3c-43.3 0-83.5-13.2-116.9-35.7z" class="st0"/><path d="M517.2 220.2C517.2 104.7 423.5 11 308 11S98.8 104.7 98.8 220.2c0 72.2 36.6 135.9 92.2 173.5V189.9c0-44.1-3.6-59.5-57.9-59.5H130v-3.1h239.5v3.1h-3.1c-54.4 0-57.9 15.4-57.9 59.5v229.7c0 3.3 0 6.5-.2 9.8 115.3-.1 208.9-93.7 208.9-209.2z" class="st0"/><path d="M320.7 362.9h-1.6v-96.5h1.6c0 27.9 13.3 54.9 31.9 73 14.6 14.5 32.7 23.4 50.2 23.4 27.2 0 34.3-23.7 34.3-38.5 0-29.3-28-37.4-45-42.4l-15.2-4.5c-27.7-8.1-59.4-24.3-59.4-64.4 0-10.6 2.6-21.7 7.8-31.5 9.9-18.7 42.4-39.6 70.6-39.6 12.3 0 20.1 2.5 26.7 5.3 7.8 3.3 14.1 6.7 24.3 6.7 8.1 0 16.2-1.4 17-12.5h1.8v80h-1.6c0-17.3-5-33.5-21.7-54.9-13.1-17-29.8-22.6-43.9-22.6-11 0-19.1 2.8-26.7 14.5-2.9 4.7-4.2 11.7-4.2 18.1 0 33.2 31.1 39 41 41.5l12.3 3.1c15.7 3.9 64.1 13.4 64.1 67.5 0 17.6-6 36.5-20.9 51.6-18 18.4-32.9 24.8-56.7 24.8-30.9 0-58.3-15.1-71.9-15.1-6.4.1-12.2 2.9-14.8 13z" fill="#fff" class="logo-s"/></svg></g></svg>